Nederland
Familie / Drama
119 minuten

geregisseerd door Maria Peters
met Ruud Feltkamp, Hugo Haenen en Eric van der Donk

Rotterdam, een winter in de jaren '20. Kruimeltje werd als kind te vondeling gelegd. Nu is hij tien jaar. Hij moet grotendeels voor zichzelf zorgen, want met zijn pleegmoeder kan hij niet goed opschieten. Zij laat hem trouwens alleen binnen als hij geld meebrengt. Kruimeltje is dus een klein boefje geworden. Bij de politie is hij inmiddels vaste klant. Maar Kruimeltje blijft hopen dat ooit op een dag zijn vader zal terugkomen om voor hem te zorgen.
 
http://www.imdb.com/title/tt0205190/
 
http://www.moviemeter.nl/film/55

Nederlands gesproken.

Hoesjes bijgevoegd.

General
Complete name                    : Kruimeltje-AC3-XviD-DVDRip[Ned]1999 2 Lions-TeamKruimeltje-AC3-XviD-DVDRip[Ned]1999.avi
Format                           : AVI
Format/Info                      : Audio Video Interleave
File size                        : 1.36 GiB
Duration                         : 1h 54mn
Overall bit rate                 : 1 698 Kbps
Writing application              : VirtualDubMod 1.5.4.1 (build 2178/release)
Writing library                  : VirtualDubMod build 2178/release

Video
ID                               : 0
Format                           : MPEG-4 Visual
Format profile                   : Simple@L3
Format settings, BVOP            : No
Format settings, QPel            : No
Format settings, GMC             : No warppoints
Format settings, Matrix          : Default (H.263)
Codec ID                         : XVID
Codec ID/Hint                    : XviD
Duration                         : 1h 54mn
Bit rate                         : 1 464 Kbps
Width                            : 720 pixels
Height                           : 400 pixels
Display aspect ratio             : 16:9
Frame rate                       : 25.000 fps
Resolution                       : 8 bits
Colorimetry                      : 4:2:0
Scan type                        : Progressive
Bits/(Pixel*Frame)               : 0.203
Stream size                      : 1.17 GiB (86%)
Writing library                  : XviD 1.1.2 (UTC 2006-11-01)

Audio
ID                               : 1
Format                           : AC-3
Format/Info                      : Audio Coding 3
Format profile                   : Dolby Digital
Format_Settings_ModeExtension    : CM (complete main)
Codec ID                         : 2000
Duration                         : 1h 54mn
Bit rate mode                    : Constant
Bit rate                         : 224 Kbps
Channel(s)                       : 2 channels
Channel positions                : Front: L R
Sampling rate                    : 48.0 KHz
Stream size                      : 184 MiB (13%)
Alignment                        : Split accross interleaves
Interleave, duration             : 40 ms (1.00 video frame)
Interleave, preload duration     : 500 ms


Brought to you by 
2Lions Team

meer zien??
Kom dan eens kijken op ons forum 
                    
http://www.2lions.ons-forum.nl

2Lions the site to be for all your Dutch MOVIES and more

******************************************

DON T HIT AND RUN Niet gelijk afhaken als de FILM binnen is blijf seeden. 

Don`t quit after you finished the download, but keep seeding

There are fake torrents from uploaders who use our team name.
Those are not ours, or members from our team.
We 2Lions-Team are not responsible for the fake posts on our name

Wij 2Lions-Team zijn niet verantwoordelijk voor die zieke FAKE posten die op onze naam worden gedaan

Please check our site !!!

to the fakers , get a life !!!